<?xml version="1.0" encoding="UTF-8" standalone="no"?>
<!-- Created with Inkscape (http://www.inkscape.org/) -->

<svg
   xmlns:dc="http://purl.org/dc/elements/1.1/"
   xmlns:cc="http://creativecommons.org/ns#"
   xmlns:rdf="http://www.w3.org/1999/02/22-rdf-syntax-ns#"
   xmlns:svg="http://www.w3.org/2000/svg"
   xmlns="http://www.w3.org/2000/svg"
   xmlns:sodipodi="http://sodipodi.sourceforge.net/DTD/sodipodi-0.dtd"
   xmlns:inkscape="http://www.inkscape.org/namespaces/inkscape"
   width="5.1959887mm"
   height="5.0799999mm"
   viewBox="0 0 18.410983 18"
   id="svg8266"
   version="1.1"
   inkscape:version="0.92.4 (unknown)"
   sodipodi:docname="upcoming.svg">
  <defs
     id="defs8268" />
  <sodipodi:namedview
     id="base"
     pagecolor="#ffffff"
     bordercolor="#666666"
     borderopacity="1.0"
     inkscape:pageopacity="0.0"
     inkscape:pageshadow="2"
     inkscape:zoom="13.395254"
     inkscape:cx="12.116526"
     inkscape:cy="-11.563369"
     inkscape:document-units="px"
     inkscape:current-layer="g2569"
     showgrid="false"
     fit-margin-top="0"
     fit-margin-left="0"
     fit-margin-right="0"
     fit-margin-bottom="0"
     inkscape:window-width="1545"
     inkscape:window-height="1054"
     inkscape:window-x="-4"
     inkscape:window-y="0"
     inkscape:window-maximized="0" />
  <metadata
     id="metadata8271">
    <rdf:RDF>
      <cc:Work
         rdf:about="">
        <dc:format>image/svg+xml</dc:format>
        <dc:type
           rdf:resource="http://purl.org/dc/dcmitype/StillImage" />
        <dc:title />
      </cc:Work>
    </rdf:RDF>
  </metadata>
  <g
     inkscape:label="Layer 1"
     inkscape:groupmode="layer"
     id="layer1"
     transform="translate(-122.22308,-20.50506)">
    <g
       transform="translate(-783.77692,-412.69494)"
       id="g2569"
       style="fill:#42525a;fill-opacity:1">
      <g
         id="g2571"
         style="fill:#0e2666;fill-opacity:1">
        <g
           id="g2573"
           style="fill:#0e2666;fill-opacity:1">
          <g
             id="g2575"
             style="fill:#0e2666;fill-opacity:1">
            <path
               inkscape:connector-curvature="0"
               class="st2"
               d="m 910.6,437.3 0.3,0 c 0.4,0 0.7,-0.3 0.7,-0.7 l 0,-2.7 c 0,-0.4 -0.3,-0.7 -0.7,-0.7 l -0.3,0 c -0.4,0 -0.7,0.3 -0.7,0.7 l 0,2.7 c 0,0.4 0.3,0.7 0.7,0.7 l 0,0 z m 0,0"
               id="path2577"
               style="fill:#0e2666;fill-opacity:1" />
          </g>
        </g>
        <g
           id="g2579"
           style="fill:#0e2666;fill-opacity:1">
          <g
             id="g2581"
             style="fill:#0e2666;fill-opacity:1">
            <g
               id="g2583"
               style="fill:#0e2666;fill-opacity:1">
              <path
                 inkscape:connector-curvature="0"
                 class="st2"
                 d="m 919.9,437.3 0.3,0 c 0.4,0 0.7,-0.3 0.7,-0.7 l 0,-2.7 c 0,-0.4 -0.3,-0.7 -0.7,-0.7 l -0.3,0 c -0.4,0 -0.7,0.3 -0.7,0.7 l 0,2.7 c -0.1,0.4 0.3,0.7 0.7,0.7 l 0,0 z m 0,0"
                 id="path2585"
                 style="fill:#0e2666;fill-opacity:1" />
            </g>
          </g>
          <g
             id="g2587"
             style="fill:#0e2666;fill-opacity:1">
            <g
               id="g2589"
               style="fill:#0e2666;fill-opacity:1">
              <path
                 inkscape:connector-curvature="0"
                 class="st2"
                 d="m 923.3,434.6 -1.9,0 0,2.2 c 0,0.7 -0.6,1.1 -1.3,1.1 l -0.3,0 c -0.7,0 -1.3,-0.6 -1.3,-1.3 l 0,-2 -6.4,0 0,2 c 0,0.7 -0.6,1.3 -1.3,1.3 l -0.3,0 c -0.7,0 -1.3,-0.6 -1.3,-1.3 l 0,-2 -2,0 c -0.6,0 -1.2,0.5 -1.2,1.2 l 0,14.2 c 0,0.6 0.5,1.2 1.2,1.2 l 16,0 c 0.6,0 1.2,-0.5 1.2,-1.2 l 0,-14.2 c 0.1,-0.7 -0.5,-1.2 -1.1,-1.2 l 0,0 z m 0,15.4 -16,0 0,-10.7 16,0 0,10.7 0,0 0,0 z m 0,0"
                 id="path2591"
                 style="fill:#0e2666;fill-opacity:1" />
            </g>
          </g>
        </g>
        <g
           id="g2593"
           style="fill:#0e2666;fill-opacity:1">
          <g
             id="g2595"
             style="fill:#0e2666;fill-opacity:1">
            <path
               inkscape:connector-curvature="0"
               class="st2"
               d="m 915.9,442.9 2.1,0 c 0.1,0 0.2,-0.1 0.2,-0.2 l 0,-1.8 c 0,-0.1 -0.1,-0.2 -0.2,-0.2 l -2.1,0 c -0.1,0 -0.2,0.1 -0.2,0.2 l 0,1.8 c 0.1,0.1 0.1,0.2 0.2,0.2 l 0,0 z m 0,0"
               id="path2597"
               style="fill:#0e2666;fill-opacity:1" />
          </g>
        </g>
        <g
           id="g2599"
           style="fill:#0e2666;fill-opacity:1">
          <g
             id="g2601"
             style="fill:#0e2666;fill-opacity:1">
            <path
               inkscape:connector-curvature="0"
               class="st2"
               d="m 919.3,442.9 2.1,0 c 0.1,0 0.2,-0.1 0.2,-0.2 l 0,-1.8 c 0,-0.1 -0.1,-0.2 -0.2,-0.2 l -2.1,0 c -0.1,0 -0.2,0.1 -0.2,0.2 l 0,1.8 c 0.1,0.1 0.2,0.2 0.2,0.2 l 0,0 z m 0,0"
               id="path2603"
               style="fill:#0e2666;fill-opacity:1" />
          </g>
        </g>
        <g
           id="g2605"
           style="fill:#0e2666;fill-opacity:1">
          <g
             id="g2607"
             style="fill:#0e2666;fill-opacity:1">
            <path
               inkscape:connector-curvature="0"
               class="st2"
               d="m 909,445.8 2.1,0 c 0.1,0 0.2,-0.1 0.2,-0.2 l 0,-1.8 c 0,-0.1 -0.1,-0.2 -0.2,-0.2 l -2.1,0 c -0.1,0 -0.2,0.1 -0.2,0.2 l 0,1.8 c 0.1,0.2 0.1,0.2 0.2,0.2 l 0,0 z m 0,0"
               id="path2609"
               style="fill:#0e2666;fill-opacity:1" />
          </g>
        </g>
        <g
           id="g2611"
           style="fill:#0e2666;fill-opacity:1">
          <g
             id="g2613"
             style="fill:#0e2666;fill-opacity:1">
            <path
               inkscape:connector-curvature="0"
               class="st2"
               d="m 912.5,445.8 2.1,0 c 0.1,0 0.2,-0.1 0.2,-0.2 l 0,-1.8 c 0,-0.1 -0.1,-0.2 -0.2,-0.2 l -2.1,0 c -0.1,0 -0.2,0.1 -0.2,0.2 l 0,1.8 c 0,0.2 0.1,0.2 0.2,0.2 l 0,0 z m 0,0"
               id="path2615"
               style="fill:#0e2666;fill-opacity:1" />
          </g>
        </g>
        <g
           id="g2617"
           style="fill:#0e2666;fill-opacity:1">
          <g
             id="g2619"
             style="fill:#0e2666;fill-opacity:1">
            <path
               inkscape:connector-curvature="0"
               class="st2"
               d="m 915.9,445.8 2.1,0 c 0.1,0 0.2,-0.1 0.2,-0.2 l 0,-1.8 c 0,-0.1 -0.1,-0.2 -0.2,-0.2 l -2.1,0 c -0.1,0 -0.2,0.1 -0.2,0.2 l 0,1.8 c 0.1,0.2 0.1,0.2 0.2,0.2 l 0,0 z m 0,0"
               id="path2621"
               style="fill:#0e2666;fill-opacity:1" />
          </g>
        </g>
        <g
           id="g2623"
           style="fill:#0e2666;fill-opacity:1">
          <g
             id="g2625"
             style="fill:#0e2666;fill-opacity:1">
            <path
               inkscape:connector-curvature="0"
               class="st2"
               d="m 919.3,445.8 2.1,0 c 0.1,0 0.2,-0.1 0.2,-0.2 l 0,-1.8 c 0,-0.1 -0.1,-0.2 -0.2,-0.2 l -2.1,0 c -0.1,0 -0.2,0.1 -0.2,0.2 l 0,1.8 c 0.1,0.2 0.2,0.2 0.2,0.2 l 0,0 z m 0,0"
               id="path2627"
               style="fill:#0e2666;fill-opacity:1" />
          </g>
        </g>
        <g
           id="g2629"
           style="fill:#0e2666;fill-opacity:1">
          <g
             id="g2631"
             style="fill:#0e2666;fill-opacity:1">
            <path
               inkscape:connector-curvature="0"
               class="st2"
               d="m 911.1,446.7 -2.1,0 c -0.1,0 -0.2,0.1 -0.2,0.2 l 0,1.8 c 0,0.1 0.1,0.2 0.2,0.2 l 2.1,0 c 0.1,0 0.2,-0.1 0.2,-0.2 l 0,-1.8 c 0,-0.1 -0.1,-0.2 -0.2,-0.2 l 0,0 z m 0,0"
               id="path2633"
               style="fill:#0e2666;fill-opacity:1" />
          </g>
        </g>
        <g
           id="g2635"
           style="fill:#0e2666;fill-opacity:1">
          <g
             id="g2637"
             style="fill:#0e2666;fill-opacity:1">
            <path
               inkscape:connector-curvature="0"
               class="st2"
               d="m 914.6,446.7 -2.1,0 c -0.1,0 -0.2,0.1 -0.2,0.2 l 0,1.8 c 0,0.1 0.1,0.2 0.2,0.2 l 2.1,0 c 0.1,0 0.2,-0.1 0.2,-0.2 l 0,-1.8 c -0.1,-0.1 -0.1,-0.2 -0.2,-0.2 l 0,0 z m 0,0"
               id="path2639"
               style="fill:#0e2666;fill-opacity:1" />
          </g>
        </g>
        <g
           id="g2641"
           style="fill:#0e2666;fill-opacity:1">
          <g
             id="g2643"
             style="fill:#0e2666;fill-opacity:1">
            <path
               inkscape:connector-curvature="0"
               class="st2"
               d="m 918,446.7 -2.1,0 c -0.1,0 -0.2,0.1 -0.2,0.2 l 0,1.8 c 0,0.1 0.1,0.2 0.2,0.2 l 2.1,0 c 0.1,0 0.2,-0.1 0.2,-0.2 l 0,-1.8 c 0,-0.1 -0.1,-0.2 -0.2,-0.2 l 0,0 z m 0,0"
               id="path2645"
               style="fill:#0e2666;fill-opacity:1" />
          </g>
        </g>
        <g
           id="g2647"
           style="fill:#0e2666;fill-opacity:1">
          <g
             id="g2649"
             style="fill:#0e2666;fill-opacity:1">
            <path
               inkscape:connector-curvature="0"
               class="st2"
               d="m 921.4,446.7 -2.1,0 c -0.1,0 -0.2,0.1 -0.2,0.2 l 0,1.8 c 0,0.1 0.1,0.2 0.2,0.2 l 2.1,0 c 0.1,0 0.2,-0.1 0.2,-0.2 l 0,-1.8 c 0,-0.1 -0.1,-0.2 -0.2,-0.2 l 0,0 z m 0,0"
               id="path2651"
               style="fill:#0e2666;fill-opacity:1" />
          </g>
        </g>
      </g>
    </g>
  </g>
</svg>
