<?xml version="1.0" encoding="UTF-8" standalone="no"?>
<svg
   xmlns:dc="http://purl.org/dc/elements/1.1/"
   xmlns:cc="http://creativecommons.org/ns#"
   xmlns:rdf="http://www.w3.org/1999/02/22-rdf-syntax-ns#"
   xmlns:svg="http://www.w3.org/2000/svg"
   xmlns="http://www.w3.org/2000/svg"
   xmlns:sodipodi="http://sodipodi.sourceforge.net/DTD/sodipodi-0.dtd"
   xmlns:inkscape="http://www.inkscape.org/namespaces/inkscape"
   version="1.1"
   id="svg8698"
   viewBox="0 0 25.409527 25.1"
   height="7.0837779mm"
   width="7.171133mm"
   sodipodi:docname="calendar-grey.svg"
   inkscape:version="0.92.2 (5c3e80d, 2017-08-06)">
  <sodipodi:namedview
     pagecolor="#ffffff"
     bordercolor="#666666"
     borderopacity="1"
     objecttolerance="10"
     gridtolerance="10"
     guidetolerance="10"
     inkscape:pageopacity="0"
     inkscape:pageshadow="2"
     inkscape:window-width="1423"
     inkscape:window-height="1492"
     id="namedview22"
     showgrid="false"
     inkscape:zoom="8.8147409"
     inkscape:cx="-8.5135641"
     inkscape:cy="13.386667"
     inkscape:window-x="0"
     inkscape:window-y="0"
     inkscape:window-maximized="0"
     inkscape:current-layer="layer1" />
  <defs
     id="defs8700" />
  <metadata
     id="metadata8703">
    <rdf:RDF>
      <cc:Work
         rdf:about="">
        <dc:format>image/svg+xml</dc:format>
        <dc:type
           rdf:resource="http://purl.org/dc/dcmitype/StillImage" />
        <dc:title />
      </cc:Work>
    </rdf:RDF>
  </metadata>
  <g
     transform="translate(1409.8476,-142.66935)"
     id="layer1">
    <g
       style="fill:#0e2666;fill-opacity:1;opacity:0.54"
       id="g6390"
       transform="translate(-2123.6476,-180.73065)">
      <g
         style="fill:#0e2666;fill-opacity:1"
         id="g6392">
        <path
           id="path6394"
           d="m 720.1,329.3 0.4,0 c 0.6,0 1,-0.4 1,-1 l 0,-3.8 c 0,-0.6 -0.4,-1 -1,-1 l -0.4,0 c -0.6,0 -1,0.4 -1,1 l 0,3.8 c -0.1,0.5 0.4,1 1,1 l 0,0 z m 0,0"
           style="fill:#0e2666;fill-opacity:1" />
        <g
           style="fill:#0e2666;fill-opacity:1"
           id="g6396">
          <path
             id="path6398"
             d="m 732.9,329.2 0.4,0 c 0.6,0 1,-0.4 1,-1 l 0,-3.8 c 0,-0.6 -0.4,-1 -1,-1 l -0.4,0 c -0.6,0 -1,0.4 -1,1 l 0,3.8 c 0,0.6 0.4,1 1,1 l 0,0 z m 0,0"
             style="fill:#0e2666;fill-opacity:1" />
          <path
             id="path6400"
             d="m 737.7,325.5 -2.6,0 0,3 c 0,1 -0.8,1.6 -1.8,1.6 l -0.4,0 c -1,0 -1.8,-0.8 -1.8,-1.8 l 0,-2.7 -8.9,0 0,2.8 c 0,1 -0.8,1.8 -1.8,1.8 l -0.4,0 c -1,0 -1.8,-0.8 -1.8,-1.8 l 0,-2.8 -2.8,0 c -0.9,0 -1.6,0.7 -1.6,1.6 l 0,19.7 c 0,0.9 0.7,1.6 1.6,1.6 l 22.2,0 c 0.9,0 1.6,-0.7 1.6,-1.6 l 0,-19.7 c 0.1,-1 -0.6,-1.7 -1.5,-1.7 l 0,0 z m 0,21.3 -22.2,0 0,-14.9 22.2,0 0,14.9 0,0 0,0 z m 0,0"
             style="fill:#0e2666;fill-opacity:1" />
        </g>
        <path
           id="path6402"
           d="m 727.4,336.9 2.9,0 c 0.1,0 0.2,-0.1 0.2,-0.2 l 0,-2.5 c 0,-0.1 -0.1,-0.2 -0.2,-0.2 l -2.9,0 c -0.1,0 -0.2,0.1 -0.2,0.2 l 0,2.5 c 0,0.1 0.1,0.2 0.2,0.2 l 0,0 z m 0,0"
           style="fill:#0e2666;fill-opacity:1" />
        <path
           id="path6404"
           d="m 732.2,336.9 2.9,0 c 0.1,0 0.2,-0.1 0.2,-0.2 l 0,-2.5 c 0,-0.1 -0.1,-0.2 -0.2,-0.2 l -2.9,0 c -0.1,0 -0.2,0.1 -0.2,0.2 l 0,2.5 c 0,0.1 0.1,0.2 0.2,0.2 l 0,0 z m 0,0"
           style="fill:#0e2666;fill-opacity:1" />
        <path
           id="path6406"
           d="m 717.9,341.1 2.9,0 c 0.1,0 0.2,-0.1 0.2,-0.2 l 0,-2.5 c 0,-0.1 -0.1,-0.2 -0.2,-0.2 l -2.9,0 c -0.1,0 -0.2,0.1 -0.2,0.2 l 0,2.5 c -0.1,0.1 0,0.2 0.2,0.2 l 0,0 z m 0,0"
           style="fill:#0e2666;fill-opacity:1" />
        <path
           id="path6408"
           d="m 722.6,341.1 2.9,0 c 0.1,0 0.2,-0.1 0.2,-0.2 l 0,-2.5 c 0,-0.1 -0.1,-0.2 -0.2,-0.2 l -2.9,0 c -0.1,0 -0.2,0.1 -0.2,0.2 l 0,2.5 c 0,0.1 0.1,0.2 0.2,0.2 l 0,0 z m 0,0"
           style="fill:#0e2666;fill-opacity:1" />
        <path
           id="path6410"
           d="m 727.4,341.1 2.9,0 c 0.1,0 0.2,-0.1 0.2,-0.2 l 0,-2.5 c 0,-0.1 -0.1,-0.2 -0.2,-0.2 l -2.9,0 c -0.1,0 -0.2,0.1 -0.2,0.2 l 0,2.5 c 0,0.1 0.1,0.2 0.2,0.2 l 0,0 z m 0,0"
           style="fill:#0e2666;fill-opacity:1" />
        <path
           id="path6412"
           d="m 732.2,341.1 2.9,0 c 0.1,0 0.2,-0.1 0.2,-0.2 l 0,-2.5 c 0,-0.1 -0.1,-0.2 -0.2,-0.2 l -2.9,0 c -0.1,0 -0.2,0.1 -0.2,0.2 l 0,2.5 c 0,0.1 0.1,0.2 0.2,0.2 l 0,0 z m 0,0"
           style="fill:#0e2666;fill-opacity:1" />
        <path
           id="path6414"
           d="m 720.8,342.3 -2.9,0 c -0.1,0 -0.2,0.1 -0.2,0.2 l 0,2.5 c 0,0.1 0.1,0.2 0.2,0.2 l 2.9,0 c 0.1,0 0.2,-0.1 0.2,-0.2 l 0,-2.5 c 0,-0.1 -0.1,-0.2 -0.2,-0.2 l 0,0 z m 0,0"
           style="fill:#0e2666;fill-opacity:1" />
        <path
           id="path6416"
           d="m 725.6,342.3 -2.9,0 c -0.1,0 -0.2,0.1 -0.2,0.2 l 0,2.5 c 0,0.1 0.1,0.2 0.2,0.2 l 2.9,0 c 0.1,0 0.2,-0.1 0.2,-0.2 l 0,-2.5 c 0,-0.1 -0.1,-0.2 -0.2,-0.2 l 0,0 z m 0,0"
           style="fill:#0e2666;fill-opacity:1" />
        <path
           id="path6418"
           d="m 730.3,342.3 -2.9,0 c -0.1,0 -0.2,0.1 -0.2,0.2 l 0,2.5 c 0,0.1 0.1,0.2 0.2,0.2 l 2.9,0 c 0.1,0 0.2,-0.1 0.2,-0.2 l 0,-2.5 c 0,-0.1 -0.1,-0.2 -0.2,-0.2 l 0,0 z m 0,0"
           style="fill:#0e2666;fill-opacity:1" />
        <path
           id="path6420"
           d="m 735.1,342.3 -2.9,0 c -0.1,0 -0.2,0.1 -0.2,0.2 l 0,2.5 c 0,0.1 0.1,0.2 0.2,0.2 l 2.9,0 c 0.1,0 0.2,-0.1 0.2,-0.2 l 0,-2.5 c 0,-0.1 -0.1,-0.2 -0.2,-0.2 l 0,0 z m 0,0"
           style="fill:#0e2666;fill-opacity:1" />
      </g>
    </g>
  </g>
</svg>
